<mxfile host="app.diagrams.net" modified="2023-10-02T12:21:22.409Z" agent="Mozilla/5.0 (X11; Ubuntu; Linux x86_64; rv:109.0) Gecko/20100101 Firefox/117.0" etag="LmFyHfdahDFC-43AjGfG" version="21.1.2">
  <diagram name="Page-1" id="4MWNuNgpvRLzVZ8rR2-s">
    <mxGraphModel dx="2206" dy="1220" grid="1" gridSize="10" guides="1" tooltips="1" connect="1" arrows="1" fold="1" page="1" pageScale="1" pageWidth="827" pageHeight="1169" math="0" shadow="0">
      <root>
        <mxCell id="0" />
        <mxCell id="1" parent="0" />
        <mxCell id="mppBB0xmaZZdKNHGbJdN-46" value="" style="rounded=1;whiteSpace=wrap;html=1;fillColor=none;" vertex="1" parent="1">
          <mxGeometry x="440" y="440" width="160" height="360" as="geometry" />
        </mxCell>
        <mxCell id="mppBB0xmaZZdKNHGbJdN-1" value="" style="image;perimeter=ellipsePerimeter;html=1;align=center;shadow=0;dashed=0;spacingTop=3;image=img/lib/active_directory/folder_open.svg;verticalAlign=middle;labelPosition=center;verticalLabelPosition=middle;" vertex="1" parent="1">
          <mxGeometry x="440" y="560" width="79.6" height="80" as="geometry" />
        </mxCell>
        <mxCell id="mppBB0xmaZZdKNHGbJdN-13" value="&lt;div&gt;&lt;font style=&quot;font-size: 36px;&quot;&gt;&lt;br&gt;&lt;/font&gt;&lt;/div&gt;&lt;div&gt;&lt;font style=&quot;font-size: 36px;&quot;&gt;3&lt;/font&gt;&lt;/div&gt;" style="shape=actor;whiteSpace=wrap;html=1;" vertex="1" parent="1">
          <mxGeometry x="120" y="226" width="80" height="80" as="geometry" />
        </mxCell>
        <mxCell id="mppBB0xmaZZdKNHGbJdN-14" value="&lt;div&gt;&lt;font style=&quot;font-size: 36px;&quot;&gt;&lt;br&gt;&lt;/font&gt;&lt;/div&gt;&lt;div&gt;&lt;font style=&quot;font-size: 36px;&quot;&gt;2&lt;/font&gt;&lt;/div&gt;" style="shape=actor;whiteSpace=wrap;html=1;" vertex="1" parent="1">
          <mxGeometry x="120" y="134" width="80" height="80" as="geometry" />
        </mxCell>
        <mxCell id="mppBB0xmaZZdKNHGbJdN-15" value="&lt;div&gt;&lt;font style=&quot;font-size: 36px;&quot;&gt;&lt;br&gt;&lt;/font&gt;&lt;/div&gt;&lt;div&gt;&lt;font style=&quot;font-size: 36px;&quot;&gt;4&lt;/font&gt;&lt;/div&gt;" style="shape=actor;whiteSpace=wrap;html=1;" vertex="1" parent="1">
          <mxGeometry x="120" y="320" width="80" height="80" as="geometry" />
        </mxCell>
        <mxCell id="mppBB0xmaZZdKNHGbJdN-27" value="" style="image;perimeter=ellipsePerimeter;html=1;align=center;shadow=0;dashed=0;spacingTop=3;image=img/lib/active_directory/folder.svg;imageBackground=none;imageBorder=none;verticalAlign=middle;labelPosition=center;verticalLabelPosition=middle;" vertex="1" parent="1">
          <mxGeometry x="440" y="680" width="80" height="80" as="geometry" />
        </mxCell>
        <mxCell id="mppBB0xmaZZdKNHGbJdN-28" value="" style="image;perimeter=ellipsePerimeter;html=1;align=center;shadow=0;dashed=0;spacingTop=3;image=img/lib/active_directory/folder.svg;imageBackground=none;imageBorder=none;verticalAlign=middle;labelPosition=center;verticalLabelPosition=middle;" vertex="1" parent="1">
          <mxGeometry x="520" y="680" width="80" height="80" as="geometry" />
        </mxCell>
        <mxCell id="mppBB0xmaZZdKNHGbJdN-32" value="&lt;font color=&quot;#ffffff&quot; style=&quot;font-size: 36px;&quot;&gt;2&lt;/font&gt;" style="text;html=1;align=center;verticalAlign=middle;resizable=0;points=[];autosize=1;" vertex="1" parent="1">
          <mxGeometry x="460" y="698" width="40" height="60" as="geometry" />
        </mxCell>
        <mxCell id="mppBB0xmaZZdKNHGbJdN-33" value="&lt;font color=&quot;#ffffff&quot; style=&quot;font-size: 36px;&quot;&gt;3&lt;/font&gt;" style="text;html=1;align=center;verticalAlign=middle;resizable=0;points=[];autosize=1;" vertex="1" parent="1">
          <mxGeometry x="540" y="698" width="40" height="60" as="geometry" />
        </mxCell>
        <mxCell id="mppBB0xmaZZdKNHGbJdN-36" value="" style="verticalLabelPosition=bottom;html=1;verticalAlign=top;strokeWidth=1;align=center;outlineConnect=0;dashed=0;outlineConnect=0;shape=mxgraph.aws3d.file;strokeColor=#292929;" vertex="1" parent="1">
          <mxGeometry x="470.20000000000005" y="538" width="36.8" height="75" as="geometry" />
        </mxCell>
        <mxCell id="mppBB0xmaZZdKNHGbJdN-37" value="&lt;font style=&quot;font-size: 36px;&quot;&gt;3&lt;/font&gt;" style="text;html=1;align=center;verticalAlign=middle;resizable=0;points=[];autosize=1;" vertex="1" parent="1">
          <mxGeometry x="467" y="554" width="40" height="60" as="geometry" />
        </mxCell>
        <mxCell id="mppBB0xmaZZdKNHGbJdN-41" value="&lt;font style=&quot;font-size: 24px;&quot; color=&quot;#ffffff&quot;&gt;1&lt;/font&gt;" style="text;html=1;align=center;verticalAlign=middle;resizable=0;points=[];autosize=1;rotation=-20;" vertex="1" parent="1">
          <mxGeometry x="459.79999999999995" y="595" width="40" height="40" as="geometry" />
        </mxCell>
        <mxCell id="mppBB0xmaZZdKNHGbJdN-42" value="" style="image;perimeter=ellipsePerimeter;html=1;align=center;shadow=0;dashed=0;spacingTop=3;image=img/lib/active_directory/folder_open.svg;verticalAlign=middle;labelPosition=center;verticalLabelPosition=middle;" vertex="1" parent="1">
          <mxGeometry x="520" y="560" width="79.6" height="80" as="geometry" />
        </mxCell>
        <mxCell id="mppBB0xmaZZdKNHGbJdN-43" value="" style="verticalLabelPosition=bottom;html=1;verticalAlign=top;strokeWidth=1;align=center;outlineConnect=0;dashed=0;outlineConnect=0;shape=mxgraph.aws3d.file;strokeColor=#292929;" vertex="1" parent="1">
          <mxGeometry x="550.2" y="538" width="36.8" height="75" as="geometry" />
        </mxCell>
        <mxCell id="mppBB0xmaZZdKNHGbJdN-44" value="&lt;font style=&quot;font-size: 36px;&quot;&gt;1&lt;/font&gt;" style="text;html=1;align=center;verticalAlign=middle;resizable=0;points=[];autosize=1;" vertex="1" parent="1">
          <mxGeometry x="547" y="554" width="40" height="60" as="geometry" />
        </mxCell>
        <mxCell id="mppBB0xmaZZdKNHGbJdN-45" value="&lt;font style=&quot;font-size: 24px;&quot; color=&quot;#ffffff&quot;&gt;4&lt;/font&gt;" style="text;html=1;align=center;verticalAlign=middle;resizable=0;points=[];autosize=1;rotation=-20;" vertex="1" parent="1">
          <mxGeometry x="539.8" y="595" width="40" height="40" as="geometry" />
        </mxCell>
        <mxCell id="mppBB0xmaZZdKNHGbJdN-129" style="edgeStyle=orthogonalEdgeStyle;rounded=0;orthogonalLoop=1;jettySize=auto;html=1;entryX=0;entryY=0.75;entryDx=0;entryDy=0;entryPerimeter=0;" edge="1" parent="1" source="mppBB0xmaZZdKNHGbJdN-71" target="mppBB0xmaZZdKNHGbJdN-1">
          <mxGeometry relative="1" as="geometry" />
        </mxCell>
        <mxCell id="mppBB0xmaZZdKNHGbJdN-71" value="" style="rounded=1;whiteSpace=wrap;html=1;fillColor=none;" vertex="1" parent="1">
          <mxGeometry x="240" y="440" width="160" height="360" as="geometry" />
        </mxCell>
        <mxCell id="mppBB0xmaZZdKNHGbJdN-72" value="" style="image;perimeter=ellipsePerimeter;html=1;align=center;shadow=0;dashed=0;spacingTop=3;image=img/lib/active_directory/folder.svg;imageBackground=none;imageBorder=none;verticalAlign=middle;labelPosition=center;verticalLabelPosition=middle;" vertex="1" parent="1">
          <mxGeometry x="320" y="560" width="80" height="80" as="geometry" />
        </mxCell>
        <mxCell id="mppBB0xmaZZdKNHGbJdN-73" value="" style="image;perimeter=ellipsePerimeter;html=1;align=center;shadow=0;dashed=0;spacingTop=3;image=img/lib/active_directory/folder.svg;imageBackground=none;imageBorder=none;verticalAlign=middle;labelPosition=center;verticalLabelPosition=middle;" vertex="1" parent="1">
          <mxGeometry x="240" y="680" width="80" height="80" as="geometry" />
        </mxCell>
        <mxCell id="mppBB0xmaZZdKNHGbJdN-74" value="" style="image;perimeter=ellipsePerimeter;html=1;align=center;shadow=0;dashed=0;spacingTop=3;image=img/lib/active_directory/folder.svg;imageBackground=none;imageBorder=none;verticalAlign=middle;labelPosition=center;verticalLabelPosition=middle;" vertex="1" parent="1">
          <mxGeometry x="320" y="680" width="80" height="80" as="geometry" />
        </mxCell>
        <mxCell id="mppBB0xmaZZdKNHGbJdN-75" value="" style="image;perimeter=ellipsePerimeter;html=1;align=center;shadow=0;dashed=0;spacingTop=3;image=img/lib/active_directory/folder.svg;imageBackground=none;imageBorder=none;verticalAlign=middle;labelPosition=center;verticalLabelPosition=middle;" vertex="1" parent="1">
          <mxGeometry x="240" y="560" width="80" height="80" as="geometry" />
        </mxCell>
        <mxCell id="mppBB0xmaZZdKNHGbJdN-76" value="&lt;font color=&quot;#ffffff&quot; style=&quot;font-size: 36px;&quot;&gt;1&lt;/font&gt;" style="text;html=1;align=center;verticalAlign=middle;resizable=0;points=[];autosize=1;" vertex="1" parent="1">
          <mxGeometry x="260" y="578" width="40" height="60" as="geometry" />
        </mxCell>
        <mxCell id="mppBB0xmaZZdKNHGbJdN-77" value="&lt;font color=&quot;#ffffff&quot; style=&quot;font-size: 36px;&quot;&gt;4&lt;/font&gt;" style="text;html=1;align=center;verticalAlign=middle;resizable=0;points=[];autosize=1;" vertex="1" parent="1">
          <mxGeometry x="340" y="578" width="40" height="60" as="geometry" />
        </mxCell>
        <mxCell id="mppBB0xmaZZdKNHGbJdN-78" value="&lt;font color=&quot;#ffffff&quot; style=&quot;font-size: 36px;&quot;&gt;2&lt;/font&gt;" style="text;html=1;align=center;verticalAlign=middle;resizable=0;points=[];autosize=1;" vertex="1" parent="1">
          <mxGeometry x="260" y="698" width="40" height="60" as="geometry" />
        </mxCell>
        <mxCell id="mppBB0xmaZZdKNHGbJdN-79" value="&lt;font color=&quot;#ffffff&quot; style=&quot;font-size: 36px;&quot;&gt;3&lt;/font&gt;" style="text;html=1;align=center;verticalAlign=middle;resizable=0;points=[];autosize=1;" vertex="1" parent="1">
          <mxGeometry x="340" y="698" width="40" height="60" as="geometry" />
        </mxCell>
        <mxCell id="mppBB0xmaZZdKNHGbJdN-104" style="edgeStyle=orthogonalEdgeStyle;rounded=0;orthogonalLoop=1;jettySize=auto;html=1;entryX=0;entryY=0.5;entryDx=0;entryDy=0;" edge="1" parent="1" source="mppBB0xmaZZdKNHGbJdN-81" target="mppBB0xmaZZdKNHGbJdN-90">
          <mxGeometry relative="1" as="geometry" />
        </mxCell>
        <mxCell id="mppBB0xmaZZdKNHGbJdN-81" value="" style="rounded=1;whiteSpace=wrap;html=1;fillColor=none;" vertex="1" parent="1">
          <mxGeometry x="240" y="40" width="160" height="360" as="geometry" />
        </mxCell>
        <mxCell id="mppBB0xmaZZdKNHGbJdN-82" value="" style="image;perimeter=ellipsePerimeter;html=1;align=center;shadow=0;dashed=0;spacingTop=3;image=img/lib/active_directory/folder.svg;imageBackground=none;imageBorder=none;verticalAlign=middle;labelPosition=center;verticalLabelPosition=middle;" vertex="1" parent="1">
          <mxGeometry x="320" y="160" width="80" height="80" as="geometry" />
        </mxCell>
        <mxCell id="mppBB0xmaZZdKNHGbJdN-83" value="" style="image;perimeter=ellipsePerimeter;html=1;align=center;shadow=0;dashed=0;spacingTop=3;image=img/lib/active_directory/folder.svg;imageBackground=none;imageBorder=none;verticalAlign=middle;labelPosition=center;verticalLabelPosition=middle;" vertex="1" parent="1">
          <mxGeometry x="240" y="280" width="80" height="80" as="geometry" />
        </mxCell>
        <mxCell id="mppBB0xmaZZdKNHGbJdN-84" value="" style="image;perimeter=ellipsePerimeter;html=1;align=center;shadow=0;dashed=0;spacingTop=3;image=img/lib/active_directory/folder.svg;imageBackground=none;imageBorder=none;verticalAlign=middle;labelPosition=center;verticalLabelPosition=middle;" vertex="1" parent="1">
          <mxGeometry x="320" y="280" width="80" height="80" as="geometry" />
        </mxCell>
        <mxCell id="mppBB0xmaZZdKNHGbJdN-85" value="" style="image;perimeter=ellipsePerimeter;html=1;align=center;shadow=0;dashed=0;spacingTop=3;image=img/lib/active_directory/folder.svg;imageBackground=none;imageBorder=none;verticalAlign=middle;labelPosition=center;verticalLabelPosition=middle;" vertex="1" parent="1">
          <mxGeometry x="240" y="160" width="80" height="80" as="geometry" />
        </mxCell>
        <mxCell id="mppBB0xmaZZdKNHGbJdN-86" value="&lt;font color=&quot;#ffffff&quot; style=&quot;font-size: 36px;&quot;&gt;1&lt;/font&gt;" style="text;html=1;align=center;verticalAlign=middle;resizable=0;points=[];autosize=1;" vertex="1" parent="1">
          <mxGeometry x="260" y="178" width="40" height="60" as="geometry" />
        </mxCell>
        <mxCell id="mppBB0xmaZZdKNHGbJdN-87" value="&lt;font color=&quot;#ffffff&quot; style=&quot;font-size: 36px;&quot;&gt;4&lt;/font&gt;" style="text;html=1;align=center;verticalAlign=middle;resizable=0;points=[];autosize=1;" vertex="1" parent="1">
          <mxGeometry x="340" y="178" width="40" height="60" as="geometry" />
        </mxCell>
        <mxCell id="mppBB0xmaZZdKNHGbJdN-88" value="&lt;font color=&quot;#ffffff&quot; style=&quot;font-size: 36px;&quot;&gt;2&lt;/font&gt;" style="text;html=1;align=center;verticalAlign=middle;resizable=0;points=[];autosize=1;" vertex="1" parent="1">
          <mxGeometry x="260" y="298" width="40" height="60" as="geometry" />
        </mxCell>
        <mxCell id="mppBB0xmaZZdKNHGbJdN-89" value="&lt;font color=&quot;#ffffff&quot; style=&quot;font-size: 36px;&quot;&gt;3&lt;/font&gt;" style="text;html=1;align=center;verticalAlign=middle;resizable=0;points=[];autosize=1;" vertex="1" parent="1">
          <mxGeometry x="340" y="298" width="40" height="60" as="geometry" />
        </mxCell>
        <mxCell id="mppBB0xmaZZdKNHGbJdN-90" value="" style="rounded=1;whiteSpace=wrap;html=1;fillColor=none;" vertex="1" parent="1">
          <mxGeometry x="440" y="40" width="160" height="360" as="geometry" />
        </mxCell>
        <mxCell id="mppBB0xmaZZdKNHGbJdN-91" value="" style="image;perimeter=ellipsePerimeter;html=1;align=center;shadow=0;dashed=0;spacingTop=3;image=img/lib/active_directory/folder.svg;imageBackground=none;imageBorder=none;verticalAlign=middle;labelPosition=center;verticalLabelPosition=middle;" vertex="1" parent="1">
          <mxGeometry x="440" y="280" width="80" height="80" as="geometry" />
        </mxCell>
        <mxCell id="mppBB0xmaZZdKNHGbJdN-92" value="&lt;font color=&quot;#ffffff&quot; style=&quot;font-size: 36px;&quot;&gt;2&lt;/font&gt;" style="text;html=1;align=center;verticalAlign=middle;resizable=0;points=[];autosize=1;" vertex="1" parent="1">
          <mxGeometry x="460" y="298" width="40" height="60" as="geometry" />
        </mxCell>
        <mxCell id="mppBB0xmaZZdKNHGbJdN-93" value="" style="image;perimeter=ellipsePerimeter;html=1;align=center;shadow=0;dashed=0;spacingTop=3;image=img/lib/active_directory/folder_open.svg;verticalAlign=middle;labelPosition=center;verticalLabelPosition=middle;" vertex="1" parent="1">
          <mxGeometry x="520" y="160" width="79.6" height="80" as="geometry" />
        </mxCell>
        <mxCell id="mppBB0xmaZZdKNHGbJdN-94" value="" style="verticalLabelPosition=bottom;html=1;verticalAlign=top;strokeWidth=1;align=center;outlineConnect=0;dashed=0;outlineConnect=0;shape=mxgraph.aws3d.file;strokeColor=#292929;" vertex="1" parent="1">
          <mxGeometry x="550.2" y="138" width="36.8" height="75" as="geometry" />
        </mxCell>
        <mxCell id="mppBB0xmaZZdKNHGbJdN-95" value="&lt;font style=&quot;font-size: 36px;&quot;&gt;1&lt;/font&gt;" style="text;html=1;align=center;verticalAlign=middle;resizable=0;points=[];autosize=1;" vertex="1" parent="1">
          <mxGeometry x="547" y="154" width="40" height="60" as="geometry" />
        </mxCell>
        <mxCell id="mppBB0xmaZZdKNHGbJdN-96" value="&lt;font style=&quot;font-size: 24px;&quot; color=&quot;#ffffff&quot;&gt;4&lt;/font&gt;" style="text;html=1;align=center;verticalAlign=middle;resizable=0;points=[];autosize=1;rotation=-20;" vertex="1" parent="1">
          <mxGeometry x="539.8" y="195" width="40" height="40" as="geometry" />
        </mxCell>
        <mxCell id="mppBB0xmaZZdKNHGbJdN-97" value="" style="image;perimeter=ellipsePerimeter;html=1;align=center;shadow=0;dashed=0;spacingTop=3;image=img/lib/active_directory/folder_open.svg;verticalAlign=middle;labelPosition=center;verticalLabelPosition=middle;" vertex="1" parent="1">
          <mxGeometry x="519.6" y="280" width="79.6" height="80" as="geometry" />
        </mxCell>
        <mxCell id="mppBB0xmaZZdKNHGbJdN-98" value="" style="verticalLabelPosition=bottom;html=1;verticalAlign=top;strokeWidth=1;align=center;outlineConnect=0;dashed=0;outlineConnect=0;shape=mxgraph.aws3d.file;strokeColor=#292929;" vertex="1" parent="1">
          <mxGeometry x="549.8000000000001" y="258" width="36.8" height="75" as="geometry" />
        </mxCell>
        <mxCell id="mppBB0xmaZZdKNHGbJdN-99" value="&lt;font style=&quot;font-size: 36px;&quot;&gt;4&lt;/font&gt;" style="text;html=1;align=center;verticalAlign=middle;resizable=0;points=[];autosize=1;" vertex="1" parent="1">
          <mxGeometry x="546.6" y="274" width="40" height="60" as="geometry" />
        </mxCell>
        <mxCell id="mppBB0xmaZZdKNHGbJdN-100" value="&lt;font style=&quot;font-size: 24px;&quot; color=&quot;#ffffff&quot;&gt;4&lt;/font&gt;" style="text;html=1;align=center;verticalAlign=middle;resizable=0;points=[];autosize=1;rotation=-20;" vertex="1" parent="1">
          <mxGeometry x="539.4" y="315" width="40" height="40" as="geometry" />
        </mxCell>
        <mxCell id="mppBB0xmaZZdKNHGbJdN-101" value="" style="image;perimeter=ellipsePerimeter;html=1;align=center;shadow=0;dashed=0;spacingTop=3;image=img/lib/active_directory/folder.svg;imageBackground=none;imageBorder=none;verticalAlign=middle;labelPosition=center;verticalLabelPosition=middle;" vertex="1" parent="1">
          <mxGeometry x="440" y="160" width="80" height="80" as="geometry" />
        </mxCell>
        <mxCell id="mppBB0xmaZZdKNHGbJdN-102" value="&lt;font color=&quot;#ffffff&quot; style=&quot;font-size: 36px;&quot;&gt;1&lt;/font&gt;" style="text;html=1;align=center;verticalAlign=middle;resizable=0;points=[];autosize=1;" vertex="1" parent="1">
          <mxGeometry x="460" y="178" width="40" height="60" as="geometry" />
        </mxCell>
        <mxCell id="mppBB0xmaZZdKNHGbJdN-105" value="&lt;div&gt;&lt;font style=&quot;font-size: 36px;&quot;&gt;&lt;br&gt;&lt;/font&gt;&lt;/div&gt;&lt;div&gt;&lt;font style=&quot;font-size: 36px;&quot;&gt;1&lt;/font&gt;&lt;/div&gt;" style="shape=actor;whiteSpace=wrap;html=1;" vertex="1" parent="1">
          <mxGeometry x="280" y="50" width="80" height="80" as="geometry" />
        </mxCell>
        <mxCell id="mppBB0xmaZZdKNHGbJdN-106" value="&lt;div&gt;&lt;font style=&quot;font-size: 36px;&quot;&gt;&lt;br&gt;&lt;/font&gt;&lt;/div&gt;&lt;div&gt;&lt;font style=&quot;font-size: 36px;&quot;&gt;1&lt;/font&gt;&lt;/div&gt;" style="shape=actor;whiteSpace=wrap;html=1;" vertex="1" parent="1">
          <mxGeometry x="640" y="40" width="80" height="80" as="geometry" />
        </mxCell>
        <mxCell id="mppBB0xmaZZdKNHGbJdN-108" value="&lt;div&gt;&lt;font style=&quot;font-size: 36px;&quot;&gt;&lt;br&gt;&lt;/font&gt;&lt;/div&gt;&lt;div&gt;&lt;font style=&quot;font-size: 36px;&quot;&gt;3&lt;/font&gt;&lt;/div&gt;" style="shape=actor;whiteSpace=wrap;html=1;" vertex="1" parent="1">
          <mxGeometry x="120" y="626" width="80" height="80" as="geometry" />
        </mxCell>
        <mxCell id="mppBB0xmaZZdKNHGbJdN-109" value="&lt;div&gt;&lt;font color=&quot;#e6e6e6&quot; style=&quot;font-size: 36px;&quot;&gt;&lt;br&gt;&lt;/font&gt;&lt;/div&gt;&lt;div&gt;&lt;font color=&quot;#e6e6e6&quot; style=&quot;font-size: 36px;&quot;&gt;2&lt;/font&gt;&lt;/div&gt;" style="shape=actor;whiteSpace=wrap;html=1;opacity=25;" vertex="1" parent="1">
          <mxGeometry x="120" y="534" width="80" height="80" as="geometry" />
        </mxCell>
        <mxCell id="mppBB0xmaZZdKNHGbJdN-110" value="&lt;div&gt;&lt;font style=&quot;font-size: 36px;&quot;&gt;&lt;br&gt;&lt;/font&gt;&lt;/div&gt;&lt;div&gt;&lt;font style=&quot;font-size: 36px;&quot;&gt;4&lt;/font&gt;&lt;/div&gt;" style="shape=actor;whiteSpace=wrap;html=1;" vertex="1" parent="1">
          <mxGeometry x="120" y="720" width="80" height="80" as="geometry" />
        </mxCell>
        <mxCell id="mppBB0xmaZZdKNHGbJdN-111" value="&lt;div&gt;&lt;font color=&quot;#e6e6e6&quot; style=&quot;font-size: 36px;&quot;&gt;&lt;br&gt;&lt;/font&gt;&lt;/div&gt;&lt;div&gt;&lt;font color=&quot;#e6e6e6&quot; style=&quot;font-size: 36px;&quot;&gt;1&lt;/font&gt;&lt;/div&gt;" style="shape=actor;whiteSpace=wrap;html=1;opacity=25;" vertex="1" parent="1">
          <mxGeometry x="120" y="40" width="80" height="80" as="geometry" />
        </mxCell>
        <mxCell id="mppBB0xmaZZdKNHGbJdN-112" value="&lt;div&gt;&lt;font color=&quot;#e6e6e6&quot; style=&quot;font-size: 36px;&quot;&gt;&lt;br&gt;&lt;/font&gt;&lt;/div&gt;&lt;div&gt;&lt;font color=&quot;#e6e6e6&quot; style=&quot;font-size: 36px;&quot;&gt;1&lt;/font&gt;&lt;/div&gt;" style="shape=actor;whiteSpace=wrap;html=1;opacity=25;" vertex="1" parent="1">
          <mxGeometry x="120" y="440" width="80" height="80" as="geometry" />
        </mxCell>
        <mxCell id="mppBB0xmaZZdKNHGbJdN-113" value="&lt;div&gt;&lt;font style=&quot;font-size: 36px;&quot;&gt;&lt;br&gt;&lt;/font&gt;&lt;/div&gt;&lt;div&gt;&lt;font style=&quot;font-size: 36px;&quot;&gt;2&lt;/font&gt;&lt;/div&gt;" style="shape=actor;whiteSpace=wrap;html=1;" vertex="1" parent="1">
          <mxGeometry x="280" y="450" width="80" height="80" as="geometry" />
        </mxCell>
        <mxCell id="mppBB0xmaZZdKNHGbJdN-114" value="&lt;div&gt;&lt;font style=&quot;font-size: 36px;&quot;&gt;&lt;br&gt;&lt;/font&gt;&lt;/div&gt;&lt;div&gt;&lt;font style=&quot;font-size: 36px;&quot;&gt;2&lt;/font&gt;&lt;/div&gt;" style="shape=actor;whiteSpace=wrap;html=1;" vertex="1" parent="1">
          <mxGeometry x="480" y="450" width="80" height="80" as="geometry" />
        </mxCell>
        <mxCell id="mppBB0xmaZZdKNHGbJdN-121" value="&lt;div&gt;&lt;font style=&quot;font-size: 36px;&quot;&gt;&lt;br&gt;&lt;/font&gt;&lt;/div&gt;&lt;div&gt;&lt;font style=&quot;font-size: 36px;&quot;&gt;2&lt;/font&gt;&lt;/div&gt;" style="shape=actor;whiteSpace=wrap;html=1;" vertex="1" parent="1">
          <mxGeometry x="640" y="534" width="80" height="80" as="geometry" />
        </mxCell>
        <mxCell id="mppBB0xmaZZdKNHGbJdN-123" value="&lt;div&gt;&lt;font style=&quot;font-size: 36px;&quot;&gt;&lt;br&gt;&lt;/font&gt;&lt;/div&gt;&lt;div&gt;&lt;font style=&quot;font-size: 36px;&quot;&gt;1&lt;/font&gt;&lt;/div&gt;" style="shape=actor;whiteSpace=wrap;html=1;" vertex="1" parent="1">
          <mxGeometry x="640" y="440" width="80" height="80" as="geometry" />
        </mxCell>
        <mxCell id="mppBB0xmaZZdKNHGbJdN-124" value="&lt;div&gt;&lt;font style=&quot;font-size: 36px;&quot;&gt;&lt;br&gt;&lt;/font&gt;&lt;/div&gt;&lt;div&gt;&lt;font style=&quot;font-size: 36px;&quot;&gt;1&lt;/font&gt;&lt;/div&gt;" style="shape=actor;whiteSpace=wrap;html=1;" vertex="1" parent="1">
          <mxGeometry x="480" y="50" width="80" height="80" as="geometry" />
        </mxCell>
        <mxCell id="mppBB0xmaZZdKNHGbJdN-125" value="" style="endArrow=classic;html=1;rounded=0;" edge="1" parent="1">
          <mxGeometry width="50" height="50" relative="1" as="geometry">
            <mxPoint x="200" y="79.75999999999999" as="sourcePoint" />
            <mxPoint x="280" y="79.75999999999999" as="targetPoint" />
          </mxGeometry>
        </mxCell>
        <mxCell id="mppBB0xmaZZdKNHGbJdN-126" value="" style="endArrow=classic;html=1;rounded=0;" edge="1" parent="1">
          <mxGeometry width="50" height="50" relative="1" as="geometry">
            <mxPoint x="560" y="79.75999999999999" as="sourcePoint" />
            <mxPoint x="640" y="79.75999999999999" as="targetPoint" />
          </mxGeometry>
        </mxCell>
        <mxCell id="mppBB0xmaZZdKNHGbJdN-127" value="" style="endArrow=classic;html=1;rounded=0;" edge="1" parent="1">
          <mxGeometry width="50" height="50" relative="1" as="geometry">
            <mxPoint x="200" y="560" as="sourcePoint" />
            <mxPoint x="280" y="480" as="targetPoint" />
          </mxGeometry>
        </mxCell>
        <mxCell id="mppBB0xmaZZdKNHGbJdN-128" value="" style="endArrow=classic;html=1;rounded=0;" edge="1" parent="1">
          <mxGeometry width="50" height="50" relative="1" as="geometry">
            <mxPoint x="560" y="480" as="sourcePoint" />
            <mxPoint x="640" y="560" as="targetPoint" />
          </mxGeometry>
        </mxCell>
      </root>
    </mxGraphModel>
  </diagram>
</mxfile>
